<mxfile host="app.diagrams.net" modified="2023-10-02T12:26:06.851Z" agent="Mozilla/5.0 (Windows NT 10.0; Win64; x64) AppleWebKit/537.36 (KHTML, like Gecko) Chrome/117.0.0.0 Safari/537.36 Edg/117.0.2045.36" version="22.0.0" etag="0XwdB9t0jLCqe8sbJX24" type="github">
  <diagram name="Halaman-1" id="ozXjDaCXbIQIqgj-jxnE">
    <mxGraphModel>
      <root>
        <mxCell id="0" />
        <mxCell id="1" parent="0" />
      </root>
    </mxGraphModel>
  </diagram>
</mxfile>
